<svg width="749" height="328" viewBox="0 0 749 328" fill="none" xmlns="http://www.w3.org/2000/svg">
<path d="M468.089 139.465C468.089 164.862 447.428 185.453 421.938 185.453C396.449 185.453 375.788 164.862 375.788 139.465C375.788 114.068 396.449 93.4764 421.938 93.4764C447.428 93.4764 468.089 114.068 468.089 139.465Z" fill="#F9D862" stroke="#B8B8B8"/>
<path d="M410.045 267.862L435.122 303.963" stroke="#AEAEAE"/>
<mask id="path-3-inside-1" fill="white">
<path fill-rule="evenodd" clip-rule="evenodd" d="M193.246 12.8695C203.544 -2.05481 225.659 -2.05483 235.957 12.8695L411.39 267.111L549.914 127.121C560.063 116.864 576.673 116.864 586.822 127.121L741.458 283.395C754.768 296.843 749.23 317.979 733.998 325H16.5651C1.73921 319.319 -5.30394 300.61 4.60614 286.248L193.246 12.8695Z"/>
</mask>
<path fill-rule="evenodd" clip-rule="evenodd" d="M193.246 12.8695C203.544 -2.05481 225.659 -2.05483 235.957 12.8695L411.39 267.111L549.914 127.121C560.063 116.864 576.673 116.864 586.822 127.121L741.458 283.395C754.768 296.843 749.23 317.979 733.998 325H16.5651C1.73921 319.319 -5.30394 300.61 4.60614 286.248L193.246 12.8695Z" fill="#41D2CA"/>
<path d="M235.957 12.8695L235.134 13.4375V13.4375L235.957 12.8695ZM193.246 12.8695L192.423 12.3016L192.423 12.3016L193.246 12.8695ZM411.39 267.111L410.567 267.679L411.252 268.672L412.101 267.814L411.39 267.111ZM549.914 127.121L550.625 127.825V127.825L549.914 127.121ZM586.822 127.121L586.111 127.825V127.825L586.822 127.121ZM741.458 283.395L740.747 284.098L740.747 284.098L741.458 283.395ZM733.998 325V326H734.217L734.416 325.908L733.998 325ZM16.5651 325L16.2073 325.934L16.3801 326H16.5651V325ZM4.60614 286.248L3.78308 285.68H3.78307L4.60614 286.248ZM236.78 12.3016C226.084 -3.19886 203.119 -3.19882 192.423 12.3016L194.069 13.4375C203.97 -0.910798 225.233 -0.910801 235.134 13.4375L236.78 12.3016ZM412.213 266.543L236.78 12.3016L235.134 13.4375L410.567 267.679L412.213 266.543ZM549.203 126.418L410.679 266.407L412.101 267.814L550.625 127.825L549.203 126.418ZM587.533 126.418C576.992 115.765 559.743 115.765 549.203 126.418L550.625 127.825C560.382 117.963 576.354 117.963 586.111 127.825L587.533 126.418ZM742.169 282.691L587.533 126.418L586.111 127.825L740.747 284.098L742.169 282.691ZM734.416 325.908C750.226 318.622 756.007 296.674 742.169 282.691L740.747 284.098C753.529 297.013 748.235 317.337 733.579 324.092L734.416 325.908ZM16.5651 326H733.998V324H16.5651V326ZM3.78307 285.68C-6.51791 300.609 0.815001 320.036 16.2073 325.934L16.9229 324.066C2.66343 318.602 -4.08997 300.612 5.42921 286.816L3.78307 285.68ZM192.423 12.3016L3.78308 285.68L5.42921 286.816L194.069 13.4375L192.423 12.3016Z" fill="#B8B8B8" mask="url(#path-3-inside-1)"/>
<path d="M74.5 185.5H353.5H354.5L347 174.5L294 97.5001L236.5 14.5001C235.3 12.1001 233 9.83339 232 9.00006C230.167 7.16673 223.2 2.40006 214 2.00006C204.8 1.60006 196.833 8.83339 194 12.5001L74.5 185.5Z" fill="white" stroke="#B8B8B8"/>
</svg>
